<svg xmlns="http://www.w3.org/2000/svg" xmlns:xlink="http://www.w3.org/1999/xlink" width="400" zoomAndPan="magnify" viewBox="0 0 300 299.999988" height="400" preserveAspectRatio="xMidYMid meet" version="1.0"><path fill="#ff3131" d="M 87.5 262.5 C 80.625 262.5 74.738281 260.050781 69.84375 255.15625 C 64.949219 250.261719 62.5 244.375 62.5 237.5 L 62.5 75 L 50 75 L 50 50 L 112.5 50 L 112.5 37.5 L 187.5 37.5 L 187.5 50 L 250 50 L 250 75 L 237.5 75 L 237.5 237.5 C 237.5 244.375 235.050781 250.261719 230.15625 255.15625 C 225.261719 260.050781 219.375 262.5 212.5 262.5 Z M 212.5 75 L 87.5 75 L 87.5 237.5 L 212.5 237.5 Z M 112.5 212.5 L 137.5 212.5 L 137.5 100 L 112.5 100 Z M 162.5 212.5 L 187.5 212.5 L 187.5 100 L 162.5 100 Z M 87.5 75 L 87.5 237.5 Z M 87.5 75 " fill-opacity="1" fill-rule="nonzero"/></svg>