<svg xmlns="http://www.w3.org/2000/svg" xmlns:xlink="http://www.w3.org/1999/xlink" width="400" zoomAndPan="magnify" viewBox="0 0 300 299.999988" height="400" preserveAspectRatio="xMidYMid meet" version="1.0"><defs><clipPath id="1b0b92d18f"><path d="M 96.710938 4.355469 L 199.460938 4.355469 L 199.460938 299.855469 L 96.710938 299.855469 Z M 96.710938 4.355469 " clip-rule="nonzero"/></clipPath><clipPath id="41d11c0ff6"><path d="M 100.617188 0 L 203.367188 0 L 203.367188 295.5 L 100.617188 295.5 Z M 100.617188 0 " clip-rule="nonzero"/></clipPath></defs><path fill="#9971b2" d="M 191.453125 25.394531 L 106.9375 25.394531 L 106.9375 17.378906 L 191.453125 17.378906 L 191.453125 25.394531 " fill-opacity="1" fill-rule="nonzero"/><path fill="#9971b2" d="M 191.453125 47.253906 L 106.9375 47.253906 L 106.9375 39.238281 L 191.453125 39.238281 L 191.453125 47.253906 " fill-opacity="1" fill-rule="nonzero"/><path fill="#9971b2" d="M 188.554688 265.839844 L 104.023438 265.839844 L 104.023438 257.824219 L 188.554688 257.824219 L 188.554688 265.839844 " fill-opacity="1" fill-rule="nonzero"/><path fill="#9971b2" d="M 188.554688 287.699219 L 104.023438 287.699219 L 104.023438 279.683594 L 188.554688 279.683594 L 188.554688 287.699219 " fill-opacity="1" fill-rule="nonzero"/><path fill="#9971b2" d="M 184.480469 117.652344 C 183.179688 115.765625 181.8125 113.800781 180.640625 111.730469 L 111.664062 111.730469 C 110.425781 114.53125 108.863281 117.144531 107.226562 119.746094 L 185.832031 119.746094 C 185.402344 119.046875 184.949219 118.34375 184.480469 117.652344 " fill-opacity="1" fill-rule="nonzero"/><path fill="#9971b2" d="M 187.640625 143.15625 L 103.113281 143.15625 L 103.113281 135.140625 L 187.640625 135.140625 L 187.640625 143.15625 " fill-opacity="1" fill-rule="nonzero"/><path fill="#9971b2" d="M 190.363281 166.566406 L 105.847656 166.566406 L 105.847656 158.550781 L 190.363281 158.550781 L 190.363281 166.566406 " fill-opacity="1" fill-rule="nonzero"/><path fill="#9971b2" d="M 187.695312 181.960938 L 110.945312 181.960938 C 112.898438 184.667969 115.007812 187.269531 116.917969 189.960938 L 182.957031 189.960938 C 184.558594 187.320312 186.144531 184.640625 187.695312 181.960938 " fill-opacity="1" fill-rule="nonzero"/><g clip-path="url(#1b0b92d18f)"><path fill="#9971b2" d="M 191.792969 299.710938 C 187.5625 299.710938 184.140625 296.300781 184.140625 292.070312 C 184.140625 260.761719 164.3125 244.902344 143.335938 228.089844 C 121.511719 210.625 96.777344 190.820312 96.777344 152.175781 C 96.777344 113.527344 121.511719 93.722656 143.335938 76.261719 C 164.3125 59.449219 184.140625 43.574219 184.140625 12.277344 C 184.140625 8.0625 187.5625 4.632812 191.792969 4.632812 C 196.023438 4.632812 199.445312 8.0625 199.445312 12.277344 C 199.445312 50.925781 174.707031 70.730469 152.886719 88.207031 C 131.898438 105.003906 112.078125 120.878906 112.078125 152.175781 C 112.078125 183.46875 131.898438 199.34375 152.886719 216.15625 C 174.707031 233.621094 199.445312 253.425781 199.445312 292.070312 C 199.445312 296.300781 196.023438 299.710938 191.792969 299.710938 " fill-opacity="1" fill-rule="nonzero"/><path fill="#9971b2" d="M 104.425781 299.710938 C 100.199219 299.710938 96.777344 296.300781 96.777344 292.070312 C 96.777344 253.425781 121.511719 233.621094 143.335938 216.15625 C 164.3125 199.34375 184.140625 183.46875 184.140625 152.175781 C 184.140625 120.878906 164.3125 105.003906 143.335938 88.207031 C 121.511719 70.730469 96.777344 50.925781 96.777344 12.277344 C 96.777344 8.0625 100.199219 4.632812 104.425781 4.632812 C 108.65625 4.632812 112.078125 8.0625 112.078125 12.277344 C 112.078125 43.574219 131.898438 59.449219 152.886719 76.261719 C 174.707031 93.722656 199.445312 113.527344 199.445312 152.175781 C 199.445312 190.820312 174.707031 210.625 152.886719 228.089844 C 131.898438 244.902344 112.078125 260.761719 112.078125 292.070312 C 112.078125 296.300781 108.65625 299.710938 104.425781 299.710938 " fill-opacity="1" fill-rule="nonzero"/></g><path fill="#59b2dc" d="M 195.363281 21.039062 L 110.847656 21.039062 L 110.847656 13.023438 L 195.363281 13.023438 L 195.363281 21.039062 " fill-opacity="1" fill-rule="nonzero"/><path fill="#59b2dc" d="M 195.363281 42.902344 L 110.847656 42.902344 L 110.847656 34.886719 L 195.363281 34.886719 L 195.363281 42.902344 " fill-opacity="1" fill-rule="nonzero"/><path fill="#59b2dc" d="M 192.460938 261.484375 L 107.933594 261.484375 L 107.933594 253.46875 L 192.460938 253.46875 L 192.460938 261.484375 " fill-opacity="1" fill-rule="nonzero"/><path fill="#59b2dc" d="M 192.460938 283.34375 L 107.933594 283.34375 L 107.933594 275.328125 L 192.460938 275.328125 L 192.460938 283.34375 " fill-opacity="1" fill-rule="nonzero"/><path fill="#59b2dc" d="M 188.386719 113.296875 C 187.085938 111.410156 185.71875 109.445312 184.550781 107.378906 L 115.570312 107.378906 C 114.335938 110.175781 112.773438 112.789062 111.132812 115.394531 L 189.742188 115.394531 C 189.3125 114.691406 188.855469 113.988281 188.386719 113.296875 " fill-opacity="1" fill-rule="nonzero"/><path fill="#59b2dc" d="M 191.550781 138.800781 L 107.019531 138.800781 L 107.019531 130.785156 L 191.550781 130.785156 L 191.550781 138.800781 " fill-opacity="1" fill-rule="nonzero"/><path fill="#59b2dc" d="M 194.269531 162.210938 L 109.753906 162.210938 L 109.753906 154.195312 L 194.269531 154.195312 L 194.269531 162.210938 " fill-opacity="1" fill-rule="nonzero"/><path fill="#59b2dc" d="M 191.601562 177.605469 L 114.855469 177.605469 C 116.804688 180.3125 118.914062 182.914062 120.828125 185.609375 L 186.867188 185.609375 C 188.464844 182.96875 190.054688 180.285156 191.601562 177.605469 " fill-opacity="1" fill-rule="nonzero"/><g clip-path="url(#41d11c0ff6)"><path fill="#59b2dc" d="M 195.699219 295.355469 C 191.472656 295.355469 188.050781 291.945312 188.050781 287.71875 C 188.050781 256.410156 168.21875 240.546875 147.242188 223.734375 C 125.421875 206.273438 100.683594 186.46875 100.683594 147.820312 C 100.683594 109.171875 125.421875 89.367188 147.242188 71.90625 C 168.21875 55.09375 188.050781 39.21875 188.050781 7.925781 C 188.050781 3.707031 191.472656 0.277344 195.699219 0.277344 C 199.929688 0.277344 203.351562 3.707031 203.351562 7.925781 C 203.351562 46.570312 178.617188 66.375 156.792969 83.851562 C 135.804688 100.648438 115.988281 116.527344 115.988281 147.820312 C 115.988281 179.113281 135.804688 194.992188 156.792969 211.800781 C 178.617188 229.265625 203.351562 249.070312 203.351562 287.71875 C 203.351562 291.945312 199.929688 295.355469 195.699219 295.355469 " fill-opacity="1" fill-rule="nonzero"/><path fill="#59b2dc" d="M 108.335938 295.355469 C 104.105469 295.355469 100.683594 291.945312 100.683594 287.71875 C 100.683594 249.070312 125.421875 229.265625 147.242188 211.800781 C 168.21875 194.992188 188.050781 179.113281 188.050781 147.820312 C 188.050781 116.527344 168.21875 100.648438 147.242188 83.851562 C 125.421875 66.375 100.683594 46.570312 100.683594 7.925781 C 100.683594 3.707031 104.105469 0.277344 108.335938 0.277344 C 112.5625 0.277344 115.988281 3.707031 115.988281 7.925781 C 115.988281 39.21875 135.804688 55.09375 156.792969 71.90625 C 178.617188 89.367188 203.351562 109.171875 203.351562 147.820312 C 203.351562 186.46875 178.617188 206.273438 156.792969 223.734375 C 135.804688 240.546875 115.988281 256.410156 115.988281 287.714844 C 115.988281 291.945312 112.5625 295.355469 108.335938 295.355469 " fill-opacity="1" fill-rule="nonzero"/></g></svg>