<svg xmlns="http://www.w3.org/2000/svg" xmlns:xlink="http://www.w3.org/1999/xlink" width="400" zoomAndPan="magnify" viewBox="0 0 300 299.999988" height="400" preserveAspectRatio="xMidYMid meet" version="1.0"><path fill="#ffffff" d="M 291.902344 39.808594 L 279.972656 32.847656 C 277.746094 31.550781 274.808594 30.898438 271.875 30.898438 C 268.941406 30.898438 266.003906 31.550781 263.777344 32.847656 L 251.847656 39.808594 C 247.394531 42.40625 243.75 48.75 243.75 53.90625 L 243.75 67.96875 C 243.75 69.5 244.101562 71.132812 244.671875 72.746094 L 166.464844 117.730469 C 165.414062 116.527344 164.257812 115.492188 163.023438 114.761719 L 127.601562 93.832031 C 126.847656 93.386719 125.988281 93.042969 125.097656 92.75 L 125.097656 59.90625 C 126.332031 59.582031 127.5 59.144531 128.507812 58.558594 L 140.4375 51.597656 C 144.890625 49 148.535156 42.65625 148.535156 37.5 L 148.535156 23.4375 C 148.535156 18.28125 144.890625 11.9375 140.4375 9.339844 L 128.507812 2.378906 C 126.28125 1.082031 123.34375 0.429688 120.410156 0.429688 C 117.476562 0.429688 114.539062 1.082031 112.3125 2.378906 L 100.382812 9.339844 C 95.929688 11.9375 92.285156 18.28125 92.285156 23.4375 L 92.285156 37.5 C 92.285156 42.65625 95.929688 49 100.382812 51.597656 L 112.3125 58.558594 C 113.320312 59.144531 114.488281 59.582031 115.722656 59.90625 L 115.722656 92.269531 C 114.167969 92.59375 112.699219 93.101562 111.460938 93.832031 L 76.039062 114.761719 C 71.601562 117.382812 67.96875 123.75 67.96875 128.90625 L 67.96875 171.09375 C 67.96875 172.078125 68.136719 173.109375 68.378906 174.144531 L 50.902344 184.195312 C 50.039062 183.328125 49.121094 182.558594 48.152344 181.996094 L 36.222656 175.035156 C 33.996094 173.738281 31.0625 173.085938 28.125 173.085938 C 25.1875 173.085938 22.253906 173.738281 20.027344 175.035156 L 8.097656 181.996094 C 3.644531 184.59375 0 190.9375 0 196.09375 L 0 210.15625 C 0 215.3125 3.644531 221.65625 8.097656 224.257812 L 20.027344 231.214844 C 22.253906 232.511719 25.1875 233.164062 28.125 233.164062 C 31.0625 233.164062 33.996094 232.511719 36.222656 231.214844 L 48.152344 224.257812 C 52.605469 221.65625 56.25 215.3125 56.25 210.15625 L 56.25 196.09375 C 56.25 194.867188 56.03125 193.574219 55.65625 192.28125 L 72.746094 182.449219 C 73.753906 183.578125 74.863281 184.546875 76.039062 185.238281 L 111.460938 206.167969 C 112.699219 206.898438 114.167969 207.40625 115.722656 207.730469 L 115.722656 240.09375 C 114.488281 240.417969 113.320312 240.851562 112.3125 241.441406 L 100.382812 248.402344 C 95.929688 251 92.285156 257.34375 92.285156 262.5 L 92.285156 276.5625 C 92.285156 281.71875 95.929688 288.0625 100.382812 290.660156 L 112.3125 297.621094 C 114.539062 298.917969 117.476562 299.570312 120.410156 299.570312 C 123.34375 299.570312 126.28125 298.917969 128.507812 297.621094 L 140.4375 290.660156 C 144.890625 288.0625 148.535156 281.71875 148.535156 276.5625 L 148.535156 262.5 C 148.535156 257.34375 144.890625 251 140.4375 248.402344 L 128.507812 241.441406 C 127.5 240.851562 126.332031 240.417969 125.097656 240.09375 L 125.097656 207.25 C 125.988281 206.957031 126.847656 206.613281 127.601562 206.167969 L 163.023438 185.238281 C 163.984375 184.667969 164.898438 183.898438 165.757812 183.03125 L 241.773438 215.117188 C 241.558594 216.085938 241.40625 217.046875 241.40625 217.96875 L 241.40625 232.03125 C 241.40625 237.1875 245.050781 243.53125 249.503906 246.128906 L 261.433594 253.089844 C 263.660156 254.386719 266.597656 255.039062 269.53125 255.039062 C 272.464844 255.039062 275.402344 254.386719 277.628906 253.089844 L 289.558594 246.128906 C 294.011719 243.53125 297.65625 237.1875 297.65625 232.03125 L 297.65625 217.96875 C 297.65625 212.8125 294.011719 206.46875 289.558594 203.871094 L 277.628906 196.910156 C 275.402344 195.613281 272.464844 194.960938 269.53125 194.960938 C 266.597656 194.960938 263.660156 195.613281 261.433594 196.910156 L 249.503906 203.871094 C 248.285156 204.582031 247.136719 205.589844 246.097656 206.765625 L 170.515625 174.863281 C 170.878906 173.582031 171.09375 172.304688 171.09375 171.09375 L 171.09375 128.90625 C 171.09375 127.996094 170.945312 127.046875 170.734375 126.089844 L 249.851562 80.578125 C 250.496094 81.144531 251.15625 81.664062 251.847656 82.066406 L 263.777344 89.027344 C 266.003906 90.324219 268.941406 90.976562 271.875 90.976562 C 274.808594 90.976562 277.746094 90.324219 279.972656 89.027344 L 291.902344 82.066406 C 296.355469 79.46875 300 73.125 300 67.96875 L 300 53.90625 C 300 48.75 296.355469 42.40625 291.902344 39.808594 Z M 291.902344 39.808594 " fill-opacity="1" fill-rule="nonzero"/></svg>