<svg xmlns="http://www.w3.org/2000/svg" xmlns:xlink="http://www.w3.org/1999/xlink" width="400" zoomAndPan="magnify" viewBox="0 0 300 299.999988" height="400" preserveAspectRatio="xMidYMid meet" version="1.0"><path fill="#59b2dc" d="M 129.121094 221.648438 C 127.246094 221.648438 125.371094 221.59375 123.503906 221.476562 C 121.632812 221.363281 119.765625 221.191406 117.90625 220.964844 C 116.046875 220.734375 114.195312 220.449219 112.351562 220.109375 C 110.507812 219.765625 108.679688 219.367188 106.859375 218.914062 C 105.042969 218.457031 103.242188 217.949219 101.453125 217.382812 C 99.667969 216.816406 97.898438 216.199219 96.152344 215.523438 C 94.402344 214.851562 92.675781 214.125 90.972656 213.34375 C 89.265625 212.5625 87.589844 211.730469 85.933594 210.847656 C 84.28125 209.964844 82.65625 209.035156 81.0625 208.050781 C 79.464844 207.066406 77.902344 206.039062 76.371094 204.957031 C 74.835938 203.878906 73.339844 202.753906 71.875 201.585938 C 70.410156 200.414062 68.984375 199.199219 67.597656 197.941406 C 66.207031 196.683594 64.859375 195.382812 63.550781 194.042969 C 62.242188 192.703125 60.972656 191.320312 59.75 189.902344 C 58.523438 188.484375 57.34375 187.027344 56.210938 185.539062 C 55.074219 184.046875 53.988281 182.523438 52.945312 180.964844 C 51.902344 179.40625 50.910156 177.816406 49.96875 176.199219 C 49.023438 174.578125 48.128906 172.933594 47.285156 171.257812 C 46.445312 169.585938 45.652344 167.886719 44.914062 166.164062 C 44.175781 164.441406 43.492188 162.699219 42.859375 160.933594 C 42.226562 159.167969 41.652344 157.386719 41.128906 155.585938 C 40.605469 153.789062 40.140625 151.972656 39.730469 150.144531 C 39.320312 148.316406 38.964844 146.476562 38.667969 144.625 C 38.371094 142.777344 38.128906 140.917969 37.945312 139.054688 C 37.761719 137.1875 37.632812 135.320312 37.566406 133.445312 C 37.496094 131.574219 37.484375 129.699219 37.53125 127.828125 C 37.578125 125.953125 37.679688 124.082031 37.839844 122.214844 C 38.003906 120.347656 38.21875 118.488281 38.496094 116.632812 C 38.769531 114.78125 39.101562 112.9375 39.492188 111.105469 C 39.878906 109.269531 40.324219 107.449219 40.824219 105.644531 C 41.324219 103.839844 41.878906 102.050781 42.488281 100.277344 C 43.097656 98.503906 43.761719 96.753906 44.476562 95.023438 C 45.195312 93.289062 45.964844 91.582031 46.789062 89.898438 C 47.609375 88.214844 48.484375 86.558594 49.40625 84.925781 C 50.332031 83.296875 51.304688 81.695312 52.328125 80.125 C 53.347656 78.554688 54.417969 77.015625 55.535156 75.511719 C 56.652344 74.007812 57.8125 72.535156 59.019531 71.101562 C 60.226562 69.667969 61.476562 68.273438 62.769531 66.917969 C 64.0625 65.558594 65.394531 64.242188 66.769531 62.96875 C 68.140625 61.695312 69.554688 60.460938 71.003906 59.273438 C 72.453125 58.085938 73.933594 56.941406 75.453125 55.84375 C 76.972656 54.746094 78.523438 53.695312 80.109375 52.695312 C 81.691406 51.691406 83.304688 50.738281 84.949219 49.835938 C 86.589844 48.933594 88.257812 48.082031 89.953125 47.28125 C 91.648438 46.480469 93.363281 45.734375 95.105469 45.039062 C 96.84375 44.34375 98.605469 43.699219 100.386719 43.113281 C 102.164062 42.527344 103.960938 41.996094 105.773438 41.519531 C 107.585938 41.039062 109.410156 40.621094 111.25 40.253906 C 113.085938 39.890625 114.933594 39.582031 116.792969 39.332031 C 118.648438 39.078125 120.511719 38.886719 122.382812 38.75 C 124.25 38.609375 126.121094 38.53125 127.996094 38.507812 C 129.871094 38.488281 131.742188 38.523438 133.613281 38.617188 C 135.488281 38.707031 137.355469 38.859375 139.214844 39.066406 C 141.078125 39.273438 142.933594 39.539062 144.78125 39.859375 C 146.625 40.179688 148.460938 40.558594 150.285156 40.992188 C 152.105469 41.425781 153.914062 41.917969 155.707031 42.460938 C 157.5 43.007812 159.277344 43.605469 161.03125 44.261719 C 162.789062 44.914062 164.523438 45.621094 166.234375 46.382812 C 167.949219 47.140625 169.636719 47.953125 171.300781 48.820312 C 172.960938 49.683594 174.597656 50.597656 176.203125 51.5625 C 177.8125 52.527344 179.386719 53.539062 180.933594 54.601562 C 182.476562 55.660156 183.988281 56.769531 185.464844 57.921875 C 186.941406 59.078125 188.378906 60.277344 189.785156 61.519531 C 191.1875 62.761719 192.550781 64.042969 193.875 65.371094 C 195.464844 66.960938 196.996094 68.605469 198.464844 70.308594 C 199.933594 72.007812 201.339844 73.761719 202.679688 75.570312 C 204.019531 77.375 205.292969 79.226562 206.496094 81.125 C 207.699219 83.023438 208.832031 84.964844 209.894531 86.949219 C 210.957031 88.929688 211.941406 90.949219 212.855469 93.007812 C 213.765625 95.0625 214.601562 97.148438 215.359375 99.265625 C 216.117188 101.382812 216.796875 103.523438 217.398438 105.691406 C 217.996094 107.859375 218.515625 110.042969 218.957031 112.25 C 219.394531 114.453125 219.753906 116.671875 220.027344 118.90625 C 220.304688 121.136719 220.496094 123.375 220.609375 125.621094 C 220.71875 127.867188 220.746094 130.113281 220.691406 132.363281 C 220.636719 134.609375 220.5 136.851562 220.277344 139.089844 C 220.058594 141.328125 219.757812 143.554688 219.371094 145.773438 C 218.988281 147.988281 218.523438 150.183594 217.976562 152.367188 C 217.429688 154.546875 216.804688 156.707031 216.097656 158.839844 C 215.390625 160.976562 214.609375 163.082031 213.75 165.160156 C 212.886719 167.238281 211.953125 169.28125 210.941406 171.289062 C 209.929688 173.296875 208.84375 175.265625 207.6875 177.195312 C 206.53125 179.121094 205.304688 181.007812 204.011719 182.84375 C 202.714844 184.683594 201.355469 186.46875 199.925781 188.207031 C 198.5 189.945312 197.011719 191.628906 195.460938 193.257812 C 193.910156 194.886719 192.300781 196.453125 190.632812 197.964844 C 188.964844 199.472656 187.246094 200.917969 185.472656 202.300781 C 183.699219 203.683594 181.878906 205 180.007812 206.25 C 178.136719 207.496094 176.222656 208.675781 174.265625 209.78125 C 172.308594 210.890625 170.3125 211.921875 168.28125 212.882812 C 166.246094 213.84375 164.179688 214.726562 162.082031 215.535156 C 159.984375 216.34375 157.859375 217.074219 155.707031 217.726562 C 153.554688 218.375 151.378906 218.945312 149.1875 219.4375 C 146.992188 219.929688 144.78125 220.339844 142.558594 220.667969 C 140.332031 220.996094 138.097656 221.242188 135.855469 221.40625 C 133.613281 221.570312 131.367188 221.648438 129.121094 221.648438 Z M 129.121094 58.679688 C 127.753906 58.675781 126.390625 58.710938 125.027344 58.789062 C 123.664062 58.863281 122.304688 58.976562 120.949219 59.128906 C 119.59375 59.28125 118.242188 59.472656 116.894531 59.703125 C 115.550781 59.933594 114.210938 60.203125 112.882812 60.511719 C 111.550781 60.820312 110.230469 61.164062 108.921875 61.546875 C 107.613281 61.929688 106.3125 62.347656 105.027344 62.804688 C 103.742188 63.261719 102.46875 63.757812 101.210938 64.289062 C 99.953125 64.816406 98.710938 65.382812 97.484375 65.984375 C 96.261719 66.585938 95.054688 67.222656 93.863281 67.890625 C 92.675781 68.5625 91.507812 69.265625 90.359375 70.003906 C 89.210938 70.742188 88.082031 71.511719 86.976562 72.3125 C 85.875 73.117188 84.792969 73.949219 83.734375 74.8125 C 82.679688 75.675781 81.648438 76.570312 80.644531 77.492188 C 79.636719 78.417969 78.660156 79.367188 77.707031 80.347656 C 76.757812 81.328125 75.835938 82.332031 74.941406 83.363281 C 74.046875 84.394531 73.183594 85.453125 72.351562 86.535156 C 71.519531 87.617188 70.71875 88.71875 69.949219 89.847656 C 69.179688 90.976562 68.441406 92.125 67.738281 93.292969 C 67.035156 94.464844 66.363281 95.652344 65.730469 96.859375 C 65.09375 98.066406 64.492188 99.292969 63.929688 100.535156 C 63.363281 101.777344 62.832031 103.035156 62.339844 104.308594 C 61.847656 105.582031 61.390625 106.867188 60.972656 108.167969 C 60.550781 109.464844 60.167969 110.773438 59.824219 112.097656 C 59.480469 113.417969 59.175781 114.746094 58.90625 116.085938 C 58.636719 117.421875 58.40625 118.769531 58.214844 120.121094 C 58.027344 121.472656 57.875 122.828125 57.761719 124.1875 C 57.644531 125.546875 57.570312 126.910156 57.535156 128.273438 C 57.5 129.640625 57.503906 131.003906 57.546875 132.367188 C 57.589844 133.734375 57.671875 135.09375 57.792969 136.453125 C 57.914062 137.8125 58.074219 139.167969 58.273438 140.519531 C 58.472656 141.871094 58.707031 143.214844 58.984375 144.550781 C 59.257812 145.886719 59.574219 147.214844 59.925781 148.535156 C 60.277344 149.855469 60.664062 151.160156 61.09375 152.457031 C 61.519531 153.753906 61.984375 155.039062 62.484375 156.308594 C 62.984375 157.578125 63.519531 158.832031 64.089844 160.074219 C 64.664062 161.3125 65.269531 162.535156 65.914062 163.738281 C 66.554688 164.941406 67.230469 166.128906 67.941406 167.292969 C 68.652344 168.460938 69.394531 169.605469 70.171875 170.726562 C 70.945312 171.851562 71.753906 172.949219 72.59375 174.027344 C 73.429688 175.105469 74.300781 176.15625 75.199219 177.183594 C 76.097656 178.210938 77.027344 179.210938 77.980469 180.183594 C 78.9375 181.160156 79.921875 182.105469 80.933594 183.023438 C 81.941406 183.941406 82.980469 184.828125 84.039062 185.6875 C 85.101562 186.542969 86.1875 187.371094 87.296875 188.167969 C 88.40625 188.964844 89.535156 189.726562 90.6875 190.457031 C 91.839844 191.1875 93.015625 191.886719 94.207031 192.550781 C 95.398438 193.214844 96.609375 193.84375 97.839844 194.4375 C 99.066406 195.03125 100.3125 195.59375 101.574219 196.113281 C 102.835938 196.636719 104.109375 197.125 105.398438 197.574219 C 106.6875 198.027344 107.988281 198.4375 109.300781 198.8125 C 110.613281 199.191406 111.933594 199.527344 113.265625 199.828125 C 114.597656 200.128906 115.9375 200.386719 117.28125 200.613281 C 118.628906 200.835938 119.980469 201.019531 121.339844 201.164062 C 122.695312 201.308594 124.054688 201.417969 125.417969 201.484375 C 126.78125 201.550781 128.148438 201.582031 129.511719 201.570312 C 130.878906 201.558594 132.242188 201.511719 133.601562 201.421875 C 134.964844 201.332031 136.324219 201.203125 137.679688 201.039062 C 139.03125 200.871094 140.382812 200.667969 141.726562 200.421875 C 143.066406 200.179688 144.402344 199.894531 145.730469 199.574219 C 147.058594 199.253906 148.375 198.898438 149.679688 198.5 C 150.988281 198.105469 152.28125 197.671875 153.5625 197.203125 C 154.84375 196.734375 156.109375 196.226562 157.363281 195.683594 C 158.617188 195.140625 159.851562 194.5625 161.070312 193.949219 C 162.289062 193.335938 163.492188 192.6875 164.671875 192.003906 C 165.855469 191.324219 167.015625 190.605469 168.160156 189.859375 C 169.300781 189.109375 170.417969 188.328125 171.515625 187.515625 C 172.613281 186.703125 173.683594 185.859375 174.730469 184.984375 C 175.78125 184.109375 176.800781 183.207031 177.796875 182.273438 C 178.796875 181.339844 179.765625 180.378906 180.703125 179.390625 C 181.644531 178.402344 182.558594 177.386719 183.441406 176.34375 C 184.324219 175.304688 185.175781 174.238281 186 173.148438 C 186.820312 172.058594 187.609375 170.949219 188.371094 169.8125 C 189.128906 168.675781 189.851562 167.519531 190.542969 166.34375 C 191.238281 165.167969 191.894531 163.972656 192.519531 162.757812 C 193.140625 161.542969 193.730469 160.3125 194.28125 159.066406 C 194.835938 157.816406 195.351562 156.554688 195.832031 155.277344 C 196.3125 154 196.757812 152.707031 197.164062 151.40625 C 197.570312 150.101562 197.9375 148.789062 198.269531 147.464844 C 198.601562 146.140625 198.894531 144.808594 199.148438 143.464844 C 199.402344 142.125 199.621094 140.777344 199.796875 139.425781 C 199.976562 138.070312 200.113281 136.714844 200.214844 135.351562 C 200.3125 133.992188 200.375 132.628906 200.398438 131.261719 C 200.417969 129.898438 200.402344 128.535156 200.34375 127.167969 C 200.289062 125.804688 200.191406 124.445312 200.058594 123.085938 C 199.921875 121.726562 199.75 120.375 199.539062 119.027344 C 199.328125 117.675781 199.074219 116.335938 198.785156 115.003906 C 198.496094 113.667969 198.171875 112.34375 197.804688 111.027344 C 197.441406 109.710938 197.039062 108.410156 196.597656 107.117188 C 196.160156 105.824219 195.683594 104.546875 195.171875 103.28125 C 194.65625 102.015625 194.109375 100.765625 193.523438 99.53125 C 192.941406 98.300781 192.320312 97.082031 191.667969 95.886719 C 191.011719 94.6875 190.324219 93.507812 189.601562 92.351562 C 188.882812 91.191406 188.125 90.054688 187.339844 88.9375 C 186.554688 87.824219 185.734375 86.730469 184.886719 85.664062 C 184.035156 84.59375 183.15625 83.550781 182.246094 82.535156 C 181.335938 81.515625 180.398438 80.523438 179.433594 79.558594 C 176.128906 76.253906 172.535156 73.304688 168.652344 70.703125 C 164.769531 68.105469 160.667969 65.910156 156.351562 64.121094 C 152.035156 62.328125 147.585938 60.976562 143.003906 60.058594 C 138.421875 59.144531 133.792969 58.683594 129.121094 58.679688 Z M 129.121094 58.679688 " fill-opacity="1" fill-rule="nonzero"/><path fill="#59b2dc" d="M 258.929688 270 C 257.597656 269.996094 256.316406 269.734375 255.089844 269.21875 C 253.859375 268.707031 252.777344 267.976562 251.835938 267.03125 L 179.636719 194.878906 C 179.167969 194.414062 178.75 193.90625 178.382812 193.355469 C 178.015625 192.804688 177.707031 192.226562 177.453125 191.613281 C 177.199219 191.003906 177.007812 190.375 176.878906 189.726562 C 176.75 189.078125 176.6875 188.421875 176.6875 187.761719 C 176.6875 187.101562 176.75 186.445312 176.878906 185.796875 C 177.007812 185.148438 177.199219 184.519531 177.453125 183.90625 C 177.707031 183.296875 178.015625 182.71875 178.382812 182.167969 C 178.75 181.617188 179.167969 181.109375 179.636719 180.640625 C 180.101562 180.175781 180.609375 179.757812 181.160156 179.390625 C 181.710938 179.023438 182.289062 178.710938 182.902344 178.457031 C 183.511719 178.207031 184.140625 178.015625 184.789062 177.886719 C 185.4375 177.757812 186.09375 177.691406 186.753906 177.691406 C 187.414062 177.691406 188.070312 177.757812 188.71875 177.886719 C 189.367188 178.015625 189.996094 178.207031 190.609375 178.457031 C 191.21875 178.710938 191.796875 179.023438 192.347656 179.390625 C 192.898438 179.757812 193.40625 180.175781 193.875 180.640625 L 266.023438 252.84375 C 266.722656 253.546875 267.308594 254.335938 267.773438 255.210938 C 268.238281 256.085938 268.566406 257.011719 268.761719 257.984375 C 268.953125 258.957031 269 259.9375 268.902344 260.925781 C 268.804688 261.914062 268.566406 262.867188 268.1875 263.78125 C 267.808594 264.699219 267.304688 265.542969 266.675781 266.308594 C 266.046875 267.078125 265.324219 267.738281 264.5 268.289062 C 263.675781 268.84375 262.789062 269.265625 261.839844 269.558594 C 260.894531 269.847656 259.921875 269.996094 258.929688 270 Z M 258.929688 270 " fill-opacity="1" fill-rule="nonzero"/></svg>